# xmcd
#
# Track frame offsets:
#	150
#	15106
#	29513
#	44064
#	58745
#	72723
#	89897
#	102227
#	117648
#	129212
#
# Disc length: 1882 seconds
#
# Revision: 1
# Processed by: cddbd v1.5.2PL0 Copyright (c) Steve Scherf et al.
# Submitted via: audiograbber 1.83.01
#
DISCID=9207580a
DTITLE=A.J. Croce - Just Like Medicine
DYEAR=2017
DGENRE=Blues
TTITLE0=Gotta Get Outta My Head
TTITLE1=The Heart That Makes Me Whole
TTITLE2=Name of the Game
TTITLE3=Cures Just Like Medicine
TTITLE4=Move On
TTITLE5=The Other Side of Love
TTITLE6=Full Up
TTITLE7=I Couldn't Stop
TTITLE8=Hold You
TTITLE9=The Roads
EXTD=
EXTT0=
EXTT1=
EXTT2=
EXTT3=
EXTT4=
EXTT5=
EXTT6=
EXTT7=
EXTT8=
EXTT9=
PLAYORDER=
